<?xml version="1.0" encoding="utf-8"?>
<!-- Generator: Adobe Illustrator 19.0.0, SVG Export Plug-In . SVG Version: 6.00 Build 0)  -->
<svg version="1.1" id="Layer_3" xmlns="http://www.w3.org/2000/svg" xmlns:xlink="http://www.w3.org/1999/xlink" x="0px" y="0px"
	 viewBox="-49 141 512 512" style="enable-background:new -49 141 512 512;" xml:space="preserve">
<g>
	<path d="M331.1,423.4V370h23.6v-23.6H236.6V370h23.6v53.4c-42.2,14.9-70.9,54.8-70.9,100.2c0,58.7,47.7,106.4,106.4,106.4
		c58.6,0,106.4-47.7,106.4-106.4C402,478.3,373.3,438.3,331.1,423.4z M295.7,606.4c-41.6,0-76-30.9-81.8-70.9h12.9
		c18.4,0,35.7,7.2,48.7,20.2c17.5,17.5,40.7,27.1,65.4,27.1h12.5C338.5,597.3,318.1,606.4,295.7,606.4z M370.3,559.1h-29.4
		c-18.4,0-35.7-7.2-48.7-20.2c-17.5-17.5-40.7-27.1-65.4-27.1h-12.8c4.7-32.6,28.4-59.8,61.1-68.2h0c5.2-1.3,8.9-6.1,8.9-11.5V370
		h23.6v62.2c0,5.4,3.7,10.1,8.9,11.5c36.5,9.4,62,42.3,62,80C378.4,536.3,375.4,548.3,370.3,559.1z"/>
	<path d="M260.2,322.7c19.5,0,35.5-15.9,35.5-35.5c0-19.5-15.9-35.5-35.5-35.5s-35.5,15.9-35.5,35.5
		C224.7,306.8,240.6,322.7,260.2,322.7z M260.2,275.5c6.5,0,11.8,5.3,11.8,11.8c0,6.5-5.3,11.8-11.8,11.8s-11.8-5.3-11.8-11.8
		C248.4,280.8,253.7,275.5,260.2,275.5z"/>
	<path d="M220.3,220.8c0-26.1-21.2-47.3-47.3-47.3c-26.1,0-47.3,21.2-47.3,47.3c0,26.1,21.2,47.3,47.3,47.3
		C199.1,268.1,220.3,246.9,220.3,220.8z M173,244.4c-13,0-23.6-10.6-23.6-23.6c0-13,10.6-23.6,23.6-23.6c13,0,23.6,10.6,23.6,23.6
		C196.7,233.8,186.1,244.4,173,244.4z"/>
	<path d="M113.1,273.5H43.7v48.4H-4.8v69.4h48.4v48.4h69.4v-48.4h48.4v-69.4h-48.4V273.5z M145.1,338.4v36.5H96.6v48.4H60.1v-48.4
		H11.7v-36.5h48.4v-48.4h36.5v48.4H145.1z"/>
</g>
</svg>
